<svg xmlns="http://www.w3.org/2000/svg" xml:space="preserve" width="684" height="287" style="shape-rendering:geometricPrecision;text-rendering:geometricPrecision;image-rendering:optimizeQuality;fill-rule:evenodd;clip-rule:evenodd" viewBox="0 0 684 287.57"><defs><style>.fil0{fill:#373435}</style></defs><g id="Layer_x0020_1"><path d="M120.84 220.5c-4.09 26.59-14.32 40.62-29.51 40.62-13.59 0-20.46-10.23-20.46-31.85V107.25h47.05l1.9-9.79H70.87V32.15h-3.36C57.57 70.14 32.59 95.86 0 103.45v3.8h19.29L19 228.53c-.44 40.48 19.72 59.04 50.41 59.04 36.68 0 51.43-28.79 54.94-66.2l-3.51-.87zM225.47 287.57c49.68 0 88.69-39.31 88.69-96.88 0-57.28-39.01-97.03-88.69-97.03-49.98 0-88.99 39.75-88.99 97.03 0 57.57 39.01 96.88 88.99 96.88zm0-6.72c-23.53 0-33.32-35.22-33.32-90.16 0-55.38 9.79-89.87 33.32-89.87 23.52 0 33.02 34.49 33.02 89.87 0 54.94-9.5 90.16-33.02 90.16zM397.16 0h-71.31v.73c15.2 8.33 19.44 15.93 19.44 40.91v202.09c0 24.99-1.9 30.69-16.66 39.31v.87h85.19v-.87c-14.32-8.62-16.66-14.32-16.66-39.31V0zM610.5 268.28c-2.63 1.61-5.7 2.34-9.06 2.34-14.03 0-18.56-9.94-18.56-28.5 0-28.34.73-58.01.73-87.08 0-44.72-28.78-61.38-78.03-61.38-39.01 0-67.51 18.56-67.51 46.18 0 18.99 13.3 29.95 31.42 29.95 14.76 0 26.59-7.16 30.69-20.16-1.47.87-3.8 1.17-5.27 1.17-10.22 0-16.65-7.89-16.65-22.36 0-15.49 8.76-27.62 25.42-27.62 19.29 0 27.18 15.93 27.18 35.66v39.3l-23.09 4.97c-40.18 9.06-78.76 19.73-78.76 59.91 0 30.25 22.36 45.88 49.25 45.88 28.05 0 48.51-17.53 53.48-41.79 0 1.61.73 9.21.73 9.94 3.07 20.02 16.22 32.15 39.75 32.15 17.09 0 31.12-7.6 38.28-17.83v-.73zm-79.64-85.19v39.02c-.29 25.42-12.42 41.2-28.78 41.2-13.59 0-21.92-11.25-21.92-31.41 0-26.16 12.86-39.31 36.82-45.45l13.88-3.36z" class="fil0"/><path d="M684 254.25c0-18.12-14.03-32.58-32.15-32.58-18.26 0-32.29 14.46-32.29 32.58 0 18.27 14.03 32.59 32.29 32.59 18.12 0 32.15-14.32 32.15-32.59z" style="fill:#ffc603"/></g></svg>